<svg width="7" height="12" viewBox="0 0 7 12" fill="none" xmlns="http://www.w3.org/2000/svg">
<path d="M2.8 10C2.8 10.77 2.17 11.4 1.4 11.4C0.63 11.4 0 10.77 0 10C0 9.23001 0.63 8.60001 1.4 8.60001C2.17 8.60001 2.8 9.23001 2.8 10ZM1.4 4.40001C0.63 4.40001 0 5.03001 0 5.80001C0 6.57001 0.63 7.20001 1.4 7.20001C2.17 7.20001 2.8 6.57001 2.8 5.80001C2.8 5.03001 2.17 4.40001 1.4 4.40001ZM1.4 0.200012C0.63 0.200012 0 0.830012 0 1.60001C0 2.37001 0.63 3.00001 1.4 3.00001C2.17 3.00001 2.8 2.37001 2.8 1.60001C2.8 0.830012 2.17 0.200012 1.4 0.200012ZM5.6 3.00001C6.37 3.00001 7 2.37001 7 1.60001C7 0.830012 6.37 0.200012 5.6 0.200012C4.83 0.200012 4.2 0.830012 4.2 1.60001C4.2 2.37001 4.83 3.00001 5.6 3.00001ZM5.6 4.40001C4.83 4.40001 4.2 5.03001 4.2 5.80001C4.2 6.57001 4.83 7.20001 5.6 7.20001C6.37 7.20001 7 6.57001 7 5.80001C7 5.03001 6.37 4.40001 5.6 4.40001ZM5.6 8.60001C4.83 8.60001 4.2 9.23001 4.2 10C4.2 10.77 4.83 11.4 5.6 11.4C6.37 11.4 7 10.77 7 10C7 9.23001 6.37 8.60001 5.6 8.60001Z" fill="#BDBDBD"/>
</svg>
