<?xml version="1.0" encoding="utf-8"?>
<!-- Generator: Adobe Illustrator 16.0.0, SVG Export Plug-In . SVG Version: 6.00 Build 0)  -->
<!DOCTYPE svg PUBLIC "-//W3C//DTD SVG 1.1//EN" "http://www.w3.org/Graphics/SVG/1.1/DTD/svg11.dtd">
<svg version="1.1" id="Layer_1" xmlns="http://www.w3.org/2000/svg" xmlns:xlink="http://www.w3.org/1999/xlink" x="0px" y="0px"
	 width="100px" height="58px" viewBox="0 0 100 58" enable-background="new 0 0 100 58" xml:space="preserve">
<g>
	<defs>
		<rect id="SVGID_1_" width="100" height="58"/>
	</defs>
	<clipPath id="SVGID_2_">
		<use xlink:href="#SVGID_1_"  overflow="visible"/>
	</clipPath>
	<path clip-path="url(#SVGID_2_)" fill="#fff" d="M99.258,17.076c0,1.295-1.004,2.305-2.306,2.305
		c-1.301,0-2.305-1.01-2.305-2.305c0-1.296,1.004-2.306,2.305-2.306C98.254,14.77,99.258,15.78,99.258,17.076 M95.006,17.076
		c0,1.102,0.831,1.976,1.946,1.976c1.116,0,1.947-0.874,1.947-1.976c0-1.104-0.831-1.978-1.947-1.978
		C95.837,15.098,95.006,15.972,95.006,17.076 M96.444,18.408h-0.328v-2.665h1.021c0.603,0,0.868,0.26,0.868,0.737
		c0,0.471-0.31,0.682-0.67,0.744l0.793,1.184h-0.383l-0.75-1.184h-0.552V18.408z M96.878,16.945c0.403,0,0.799-0.012,0.799-0.465
		c0-0.372-0.31-0.459-0.632-0.459h-0.601v0.924H96.878z"/>
	<path clip-path="url(#SVGID_2_)" fill="#fff" d="M1.013,28.868c0.046-0.041,16.044-20.173,23.44-20.345
		c5.652-0.131,10.339,6.962,13.17,9.91c1.474,1.534,2.742,1.783,4.314,0.544c4.481-3.53,9.964-12.485,15.974-16.972
		c2.861-2.137,5.905-2.573,9.256-1.274c7.893,3.061,19.646,14.928,31.722,28.403l-0.024,0.263
		C90.377,21.696,75.987,7.156,65.762,5.286c-8.221-1.502-15.175,11.096-21.455,16.177c-3.083,2.492-4.483,1.383-6.994-1.259
		c-2.698-2.834-7.604-8.601-12.265-8.241C17.89,12.521,1.036,29.431,0.99,29.472L1.013,28.868z"/>
	<path clip-path="url(#SVGID_2_)" fill="#fff" d="M13.686,45.492c-0.498-2.915-0.834-6.105-1.289-10.042
		c-0.204,0.029-0.423,0.073-0.628,0.073c-0.204,0-0.409-0.044-0.615-0.073c-1.112,2.501-2.356,4.801-3.41,6.88
		c-1.157-2.299-2.312-4.581-3.365-6.88c-0.207,0.029-0.41,0.073-0.616,0.073c-0.205,0-0.395-0.044-0.6-0.073
		c-0.498,3.703-0.965,7.099-1.492,10.042c0.234-0.027,0.439-0.075,0.673-0.075c0.234,0,0.454,0.048,0.688,0.075
		c0.044-2.053,0.277-4.086,0.616-6.661c1.11,2.298,2.267,4.566,3.203,6.586c0.191-0.044,0.366-0.029,0.555,0
		c1.041-2.268,2.136-4.508,3.251-6.748c0.219,2.256,0.511,4.494,0.629,6.823c0.409-0.027,0.775-0.075,1.186-0.075
		C12.88,45.417,13.276,45.465,13.686,45.492"/>
	<path clip-path="url(#SVGID_2_)" fill="#fff" d="M29.54,40.397c-0.016-2.27-1.245-5.211-5.416-5.211
		c-3.645,0-5.767,2.356-5.767,5.269c0,3.322,2.181,5.229,5.416,5.229C27.357,45.684,29.553,43.249,29.54,40.397 M27.109,40.118
		c0,2.431-1.011,4.683-3.264,4.683c-2.195,0-3.059-2.018-3.059-3.921c0-3.28,1.216-4.813,3.249-4.813
		C26.23,36.066,27.109,38.231,27.109,40.118"/>
	<path clip-path="url(#SVGID_2_)" fill="#fff" d="M43.679,45.492V35.45c-0.366,0.029-0.733,0.073-1.098,0.073
		c-0.365,0-0.731-0.044-1.097-0.073v3.967c-0.747,0.028-1.493,0.072-2.241,0.072c-0.746,0-1.492-0.044-2.239-0.072V35.45
		c-0.364,0.029-0.73,0.073-1.097,0.073c-0.365,0-0.731-0.044-1.097-0.073v10.042c0.366-0.027,0.732-0.075,1.097-0.075
		c0.367,0,0.733,0.048,1.097,0.075v-4.906c0.747-0.028,1.493-0.07,2.239-0.07c0.748,0,1.494,0.042,2.241,0.07v4.906
		c0.366-0.027,0.732-0.075,1.097-0.075C42.946,45.417,43.313,45.465,43.679,45.492"/>
	<path clip-path="url(#SVGID_2_)" fill="#fff" d="M58.434,45.492V35.405c-0.364,0.03-0.76,0.03-1.112,0
		c-1.449,2.064-3.774,5.021-5.562,6.909V35.45c-0.364,0.029-0.732,0.073-1.097,0.073c-0.366,0-0.732-0.044-1.098-0.073v10.042
		c0.366-0.015,0.747-0.015,1.098,0c1.376-1.89,3.936-5.081,5.576-6.938v6.938c0.366-0.027,0.732-0.075,1.082-0.075
		C57.702,45.417,58.069,45.465,58.434,45.492"/>
	<path clip-path="url(#SVGID_2_)" fill="#fff" d="M71.037,36.694c-0.026-0.205-0.073-0.41-0.073-0.63
		c0-0.205,0.047-0.409,0.073-0.615H63.5c0.03,0.206,0.073,0.41,0.073,0.615c0,0.22-0.043,0.425-0.073,0.63
		c0.762-0.104,1.684-0.205,2.725-0.205v9.003c0.363-0.028,0.728-0.076,1.094-0.076c0.368,0,0.734,0.048,1.101,0.076v-9.003
		C69.311,36.489,70.175,36.591,71.037,36.694"/>
	<path clip-path="url(#SVGID_2_)" fill="#fff" d="M86.7,40.397c-0.013-2.27-1.243-5.211-5.415-5.211
		c-3.645,0-5.766,2.356-5.766,5.269c0,3.322,2.181,5.229,5.415,5.229C84.52,45.684,86.718,43.249,86.7,40.397 M84.271,40.118
		c0,2.431-1.008,4.683-3.264,4.683c-2.193,0-3.058-2.018-3.058-3.921c0-3.28,1.213-4.813,3.249-4.813
		C83.395,36.066,84.271,38.231,84.271,40.118"/>
	<path clip-path="url(#SVGID_2_)" fill="#fff" d="M98.705,37.923c0-1.653-1.097-2.473-3.134-2.473h-3.599v10.042
		c0.367-0.027,0.732-0.076,1.098-0.076s0.73,0.049,1.098,0.076v-4.408C96.804,41.084,98.705,40.528,98.705,37.923 M96.436,38.188
		c0,0.892-0.35,1.726-1.303,1.99c-0.309,0.071-0.644,0.088-0.965,0.103v-4.041h0.905C95.837,36.239,96.436,37.018,96.436,38.188"/>
	<path clip-path="url(#SVGID_2_)" fill="#fff" d="M6.303,54.635c0-1.852-1.399-2.982-3.425-2.982
		c-0.576,0-1.277,0.123-1.807,0.388c0.054,0.335,0.09,0.63,0.106,0.955h0.125c0.283-0.504,0.878-0.813,1.505-0.813
		c0.903,0,1.86,0.627,2.01,2.176H2.815c-0.335,0-0.575-0.025-0.822-0.06c0.026,0.106,0.044,0.237,0.044,0.354
		c0,0.123-0.018,0.247-0.044,0.37c0.239-0.045,0.494-0.062,0.822-0.062h2.01c-0.052,1.248-0.655,2.504-2.072,2.504
		c-0.566,0-1.205-0.272-1.61-0.664l-0.116,0.053l0.098,0.709C1.691,57.867,2.18,58,2.878,58C4.745,58,6.303,56.908,6.303,54.635"/>
	<path clip-path="url(#SVGID_2_)" fill="#fff" d="M20.171,57.884l-2.468-6.118c-0.118,0.019-0.223,0.063-0.339,0.063
		c-0.114,0-0.219-0.044-0.336-0.063c-0.954,2.524-1.68,4.214-2.531,6.102c0.142-0.009,0.284-0.028,0.426-0.028
		c0.141,0,0.282,0.02,0.414,0.028c0.364-1.225,0.92-2.587,1.691-4.402c0.646,1.665,1.16,2.958,1.621,4.419
		c0.247-0.008,0.495-0.045,0.752-0.045C19.657,57.839,19.916,57.876,20.171,57.884"/>
	<path clip-path="url(#SVGID_2_)" fill="#fff" d="M32.146,57.839c-0.018-0.124-0.044-0.257-0.044-0.381
		c0-0.123,0.026-0.257,0.044-0.382c-0.54,0.071-1.142,0.116-2.045,0.125v-2.248h0.921c0.397,0,0.759,0.035,1.087,0.081
		c-0.015-0.125-0.043-0.258-0.043-0.381c0-0.125,0.028-0.259,0.043-0.383c-0.328,0.045-0.69,0.082-1.087,0.082h-0.921v-1.904
		c0.903-0.02,1.505,0.052,2.045,0.124c-0.018-0.124-0.044-0.258-0.044-0.383c0-0.122,0.026-0.256,0.044-0.379h-3.373v6.028H32.146z"
		/>
	<path clip-path="url(#SVGID_2_)" fill="#fff" d="M45.721,57.884v-0.126l-2.381-3.425c0.31-0.329,0.566-0.637,0.841-0.93
		l1.453-1.523v-0.07c-0.16,0.019-0.319,0.046-0.47,0.046c-0.159,0-0.318-0.027-0.477-0.046c-0.744,0.938-1.515,1.858-2.303,2.771
		V51.81c-0.221,0.019-0.443,0.046-0.665,0.046c-0.22,0-0.441-0.027-0.662-0.046v6.074c0.221-0.017,0.442-0.045,0.662-0.045
		c0.222,0,0.444,0.028,0.665,0.045v-2.817l2.011,2.817c0.22-0.017,0.442-0.045,0.663-0.045
		C45.279,57.839,45.499,57.867,45.721,57.884"/>
	<path clip-path="url(#SVGID_2_)" fill="#fff" d="M58.404,52.562c-0.019-0.123-0.044-0.247-0.044-0.381
		c0-0.123,0.025-0.248,0.044-0.371h-4.56c0.02,0.123,0.045,0.248,0.045,0.371c0,0.134-0.025,0.258-0.045,0.381
		c0.46-0.062,1.018-0.123,1.646-0.123v5.445c0.222-0.016,0.441-0.045,0.664-0.045c0.222,0,0.442,0.029,0.664,0.045v-5.445
		C57.359,52.438,57.882,52.5,58.404,52.562"/>
	<path clip-path="url(#SVGID_2_)" fill="#fff" d="M71.209,53.306c0-1-0.664-1.495-1.893-1.495h-2.18v6.073
		c0.221-0.017,0.443-0.045,0.665-0.045c0.22,0,0.442,0.028,0.662,0.045v-2.666C70.061,55.218,71.209,54.882,71.209,53.306
		 M69.836,53.465c0,0.539-0.211,1.046-0.789,1.203c-0.183,0.045-0.387,0.055-0.583,0.063v-2.443h0.552
		C69.473,52.288,69.836,52.757,69.836,53.465"/>
	<path clip-path="url(#SVGID_2_)" fill="#fff" d="M85.3,57.884v-6.1c-0.22,0.018-0.46,0.018-0.673,0
		c-0.879,1.249-2.284,3.036-3.363,4.178V51.81c-0.223,0.019-0.443,0.046-0.664,0.046c-0.223,0-0.443-0.027-0.664-0.046v6.074
		c0.221-0.008,0.449-0.008,0.664,0c0.829-1.143,2.381-3.072,3.371-4.196v4.196c0.222-0.017,0.444-0.045,0.656-0.045
		C84.858,57.839,85.08,57.867,85.3,57.884"/>
	<path clip-path="url(#SVGID_2_)" fill="#fff" d="M99.187,57.884v-0.126l-2.383-3.425c0.312-0.329,0.568-0.637,0.843-0.93
		l1.452-1.523v-0.07c-0.16,0.019-0.317,0.046-0.47,0.046c-0.159,0-0.318-0.027-0.477-0.046c-0.744,0.938-1.515,1.858-2.305,2.771
		V51.81c-0.222,0.019-0.442,0.046-0.665,0.046c-0.222,0-0.441-0.027-0.662-0.046v6.074c0.221-0.017,0.44-0.045,0.662-0.045
		c0.223,0,0.443,0.028,0.665,0.045v-2.817l2.01,2.817c0.223-0.017,0.443-0.045,0.665-0.045
		C98.743,57.839,98.964,57.867,99.187,57.884"/>

		<rect x="0.878" y="48.072" clip-path="url(#SVGID_2_)" fill-rule="evenodd" clip-rule="evenodd" fill="#fff" width="99.122" height="0.682"/>
</g>
</svg>
