<svg width="14" height="14" viewBox="0 0 14 14" fill="none" xmlns="http://www.w3.org/2000/svg">
<path d="M12.7647 12.5176V10.0265H1.23529V12.5176C1.23529 12.5863 1.25945 12.6447 1.30776 12.6931C1.35553 12.7408 1.41373 12.7647 1.48235 12.7647H12.5176C12.5863 12.7647 12.6447 12.7408 12.6931 12.6931C12.7408 12.6447 12.7647 12.5863 12.7647 12.5176ZM12.7647 8.79118V5.20882H1.23529V8.79118H12.7647ZM12.7647 3.97353V1.48235C12.7647 1.41373 12.7408 1.35553 12.6931 1.30776C12.6447 1.25945 12.5863 1.23529 12.5176 1.23529H1.48235C1.41373 1.23529 1.35553 1.25945 1.30776 1.30776C1.25945 1.35553 1.23529 1.41373 1.23529 1.48235V3.97353H12.7647ZM1.48235 14C1.07059 14 0.720588 13.8559 0.432353 13.5676C0.144118 13.2794 0 12.9294 0 12.5176V1.48235C0 1.07059 0.144118 0.720588 0.432353 0.432353C0.720588 0.144118 1.07059 0 1.48235 0H12.5176C12.9294 0 13.2794 0.144118 13.5676 0.432353C13.8559 0.720588 14 1.07059 14 1.48235V12.5176C14 12.9294 13.8559 13.2794 13.5676 13.5676C13.2794 13.8559 12.9294 14 12.5176 14H1.48235Z" fill="#828282"/>
</svg>
